<?xml version="1.0" encoding="UTF-8" standalone="no"?>
<!DOCTYPE svg PUBLIC "-//W3C//DTD SVG 1.1//EN"
 "http://www.w3.org/Graphics/SVG/1.1/DTD/svg11.dtd">
<!-- Generated by graphviz version 8.0.5 (0)
 -->
<!-- Pages: 1 -->
<svg width="1648pt" height="404pt"
 viewBox="0.00 0.00 1648.06 404.00" xmlns="http://www.w3.org/2000/svg" xmlns:xlink="http://www.w3.org/1999/xlink">
<g id="graph0" class="graph" transform="scale(1 1) rotate(0) translate(4 400)">
<polygon fill="white" stroke="none" points="-4,4 -4,-400 1644.06,-400 1644.06,4 -4,4"/>
<!-- [root] aws_eip.lb (expand) -->
<g id="node1" class="node">
<title>[root] aws_eip.lb (expand)</title>
<polygon fill="none" stroke="black" points="1334.5,-180 1244.25,-180 1244.25,-144 1334.5,-144 1334.5,-180"/>
<text text-anchor="middle" x="1289.38" y="-157.32" font-family="Times,serif" font-size="14.00">aws_eip.lb</text>
</g>
<!-- [root] aws_instance.myec2 (expand) -->
<g id="node2" class="node">
<title>[root] aws_instance.myec2 (expand)</title>
<polygon fill="none" stroke="black" points="1370.12,-108 1208.62,-108 1208.62,-72 1370.12,-72 1370.12,-108"/>
<text text-anchor="middle" x="1289.38" y="-85.33" font-family="Times,serif" font-size="14.00">aws_instance.myec2</text>
</g>
<!-- [root] aws_eip.lb (expand)&#45;&gt;[root] aws_instance.myec2 (expand) -->
<g id="edge1" class="edge">
<title>[root] aws_eip.lb (expand)&#45;&gt;[root] aws_instance.myec2 (expand)</title>
<path fill="none" stroke="black" d="M1289.38,-143.7C1289.38,-136.24 1289.38,-127.32 1289.38,-118.97"/>
<polygon fill="black" stroke="black" points="1292.88,-119.1 1289.38,-109.1 1285.88,-119.1 1292.88,-119.1"/>
</g>
<!-- [root] provider[&quot;registry.terraform.io/hashicorp/aws&quot;] -->
<g id="node4" class="node">
<title>[root] provider[&quot;registry.terraform.io/hashicorp/aws&quot;]</title>
<polygon fill="none" stroke="black" points="1289.38,-36 938.69,-18 1289.37,0 1640.06,-18 1289.38,-36"/>
<text text-anchor="middle" x="1289.38" y="-13.32" font-family="Times,serif" font-size="14.00">provider[&quot;registry.terraform.io/hashicorp/aws&quot;]</text>
</g>
<!-- [root] aws_instance.myec2 (expand)&#45;&gt;[root] provider[&quot;registry.terraform.io/hashicorp/aws&quot;] -->
<g id="edge2" class="edge">
<title>[root] aws_instance.myec2 (expand)&#45;&gt;[root] provider[&quot;registry.terraform.io/hashicorp/aws&quot;]</title>
<path fill="none" stroke="black" d="M1289.38,-71.7C1289.38,-64.24 1289.38,-55.32 1289.38,-46.97"/>
<polygon fill="black" stroke="black" points="1292.88,-47.1 1289.38,-37.1 1285.88,-47.1 1292.88,-47.1"/>
</g>
<!-- [root] aws_security_group.allow_tls (expand) -->
<g id="node3" class="node">
<title>[root] aws_security_group.allow_tls (expand)</title>
<polygon fill="none" stroke="black" points="1401.25,-252 1177.5,-252 1177.5,-216 1401.25,-216 1401.25,-252"/>
<text text-anchor="middle" x="1289.38" y="-229.32" font-family="Times,serif" font-size="14.00">aws_security_group.allow_tls</text>
</g>
<!-- [root] aws_security_group.allow_tls (expand)&#45;&gt;[root] aws_eip.lb (expand) -->
<g id="edge3" class="edge">
<title>[root] aws_security_group.allow_tls (expand)&#45;&gt;[root] aws_eip.lb (expand)</title>
<path fill="none" stroke="black" d="M1289.38,-215.7C1289.38,-208.24 1289.38,-199.32 1289.38,-190.97"/>
<polygon fill="black" stroke="black" points="1292.88,-191.1 1289.38,-181.1 1285.88,-191.1 1292.88,-191.1"/>
</g>
<!-- [root] var.ami_id -->
<g id="node5" class="node">
<title>[root] var.ami_id</title>
<polygon fill="none" stroke="black" points="82.75,-324 0,-324 0,-288 88.75,-288 88.75,-318 82.75,-324"/>
<polyline fill="none" stroke="black" points="82.75,-324 82.75,-318"/>
<polyline fill="none" stroke="black" points="88.75,-318 82.75,-318"/>
<text text-anchor="middle" x="44.38" y="-301.32" font-family="Times,serif" font-size="14.00">var.ami_id</text>
</g>
<!-- [root] var.az -->
<g id="node6" class="node">
<title>[root] var.az</title>
<polygon fill="none" stroke="black" points="158.38,-324 106.38,-324 106.38,-288 164.38,-288 164.38,-318 158.38,-324"/>
<polyline fill="none" stroke="black" points="158.38,-324 158.38,-318"/>
<polyline fill="none" stroke="black" points="164.38,-318 158.38,-318"/>
<text text-anchor="middle" x="135.38" y="-301.32" font-family="Times,serif" font-size="14.00">var.az</text>
</g>
<!-- [root] var.ec2_tag_name -->
<g id="node7" class="node">
<title>[root] var.ec2_tag_name</title>
<polygon fill="none" stroke="black" points="318.75,-324 182,-324 182,-288 324.75,-288 324.75,-318 318.75,-324"/>
<polyline fill="none" stroke="black" points="318.75,-324 318.75,-318"/>
<polyline fill="none" stroke="black" points="324.75,-318 318.75,-318"/>
<text text-anchor="middle" x="253.38" y="-301.32" font-family="Times,serif" font-size="14.00">var.ec2_tag_name</text>
</g>
<!-- [root] var.elb_name -->
<g id="node8" class="node">
<title>[root] var.elb_name</title>
<polygon fill="none" stroke="black" points="446.25,-324 342.5,-324 342.5,-288 452.25,-288 452.25,-318 446.25,-324"/>
<polyline fill="none" stroke="black" points="446.25,-324 446.25,-318"/>
<polyline fill="none" stroke="black" points="452.25,-318 446.25,-318"/>
<text text-anchor="middle" x="397.38" y="-301.32" font-family="Times,serif" font-size="14.00">var.elb_name</text>
</g>
<!-- [root] var.elb_names -->
<g id="node9" class="node">
<title>[root] var.elb_names</title>
<polygon fill="none" stroke="black" points="582,-324 470.75,-324 470.75,-288 588,-288 588,-318 582,-324"/>
<polyline fill="none" stroke="black" points="582,-324 582,-318"/>
<polyline fill="none" stroke="black" points="588,-318 582,-318"/>
<text text-anchor="middle" x="529.38" y="-301.32" font-family="Times,serif" font-size="14.00">var.elb_names</text>
</g>
<!-- [root] var.list -->
<g id="node10" class="node">
<title>[root] var.list</title>
<polygon fill="none" stroke="black" points="664.75,-324 606,-324 606,-288 670.75,-288 670.75,-318 664.75,-324"/>
<polyline fill="none" stroke="black" points="664.75,-324 664.75,-318"/>
<polyline fill="none" stroke="black" points="670.75,-318 664.75,-318"/>
<text text-anchor="middle" x="638.38" y="-301.32" font-family="Times,serif" font-size="14.00">var.list</text>
</g>
<!-- [root] var.tm -->
<g id="node11" class="node">
<title>[root] var.tm</title>
<polygon fill="none" stroke="black" points="744.25,-324 688.5,-324 688.5,-288 750.25,-288 750.25,-318 744.25,-324"/>
<polyline fill="none" stroke="black" points="744.25,-324 744.25,-318"/>
<polyline fill="none" stroke="black" points="750.25,-318 744.25,-318"/>
<text text-anchor="middle" x="719.38" y="-301.32" font-family="Times,serif" font-size="14.00">var.tm</text>
</g>
<!-- [root] var.types -->
<g id="node12" class="node">
<title>[root] var.types</title>
<polygon fill="none" stroke="black" points="844,-324 768.75,-324 768.75,-288 850,-288 850,-318 844,-324"/>
<polyline fill="none" stroke="black" points="844,-324 844,-318"/>
<polyline fill="none" stroke="black" points="850,-318 844,-318"/>
<text text-anchor="middle" x="809.38" y="-301.32" font-family="Times,serif" font-size="14.00">var.types</text>
</g>
<!-- [root] var.vpn_ip -->
<g id="node13" class="node">
<title>[root] var.vpn_ip</title>
<polygon fill="none" stroke="black" points="950.75,-324 868,-324 868,-288 956.75,-288 956.75,-318 950.75,-324"/>
<polyline fill="none" stroke="black" points="950.75,-324 950.75,-318"/>
<polyline fill="none" stroke="black" points="956.75,-318 950.75,-318"/>
<text text-anchor="middle" x="912.38" y="-301.32" font-family="Times,serif" font-size="14.00">var.vpn_ip</text>
</g>
<!-- [root] provider[&quot;registry.terraform.io/hashicorp/aws&quot;] (close) -->
<g id="node14" class="node">
<title>[root] provider[&quot;registry.terraform.io/hashicorp/aws&quot;] (close)</title>
<ellipse fill="none" stroke="black" cx="1289.38" cy="-306" rx="314.79" ry="18"/>
<text text-anchor="middle" x="1289.38" y="-301.32" font-family="Times,serif" font-size="14.00">[root] provider[&quot;registry.terraform.io/hashicorp/aws&quot;] (close)</text>
</g>
<!-- [root] provider[&quot;registry.terraform.io/hashicorp/aws&quot;] (close)&#45;&gt;[root] aws_security_group.allow_tls (expand) -->
<g id="edge4" class="edge">
<title>[root] provider[&quot;registry.terraform.io/hashicorp/aws&quot;] (close)&#45;&gt;[root] aws_security_group.allow_tls (expand)</title>
<path fill="none" stroke="black" d="M1289.38,-287.7C1289.38,-280.24 1289.38,-271.32 1289.38,-262.97"/>
<polygon fill="black" stroke="black" points="1292.88,-263.1 1289.38,-253.1 1285.88,-263.1 1292.88,-263.1"/>
</g>
<!-- [root] root -->
<g id="node15" class="node">
<title>[root] root</title>
<ellipse fill="none" stroke="black" cx="583.38" cy="-378" rx="62.78" ry="18"/>
<text text-anchor="middle" x="583.38" y="-373.32" font-family="Times,serif" font-size="14.00">[root] root</text>
</g>
<!-- [root] root&#45;&gt;[root] var.ami_id -->
<g id="edge6" class="edge">
<title>[root] root&#45;&gt;[root] var.ami_id</title>
<path fill="none" stroke="black" d="M521.75,-374.27C430.95,-369.36 255.93,-356.59 99.76,-324.28"/>
<polygon fill="black" stroke="black" points="100.53,-320.65 90.02,-322.02 99.09,-327.5 100.53,-320.65"/>
</g>
<!-- [root] root&#45;&gt;[root] var.az -->
<g id="edge7" class="edge">
<title>[root] root&#45;&gt;[root] var.az</title>
<path fill="none" stroke="black" d="M521.47,-374.61C442.35,-370.33 301.43,-358.56 174.77,-323.92"/>
<polygon fill="black" stroke="black" points="176.09,-320.37 165.52,-321.05 174.21,-327.11 176.09,-320.37"/>
</g>
<!-- [root] root&#45;&gt;[root] var.ec2_tag_name -->
<g id="edge8" class="edge">
<title>[root] root&#45;&gt;[root] var.ec2_tag_name</title>
<path fill="none" stroke="black" d="M534.04,-366.55C485.88,-356.34 410.21,-340.31 335.44,-324.44"/>
<polygon fill="black" stroke="black" points="336.41,-320.85 325.9,-322.2 334.96,-327.7 336.41,-320.85"/>
</g>
<!-- [root] root&#45;&gt;[root] var.elb_name -->
<g id="edge9" class="edge">
<title>[root] root&#45;&gt;[root] var.elb_name</title>
<path fill="none" stroke="black" d="M546.63,-363.17C520.09,-353.18 483.76,-339.51 453.59,-328.16"/>
<polygon fill="black" stroke="black" points="455.21,-324.65 444.62,-324.4 452.75,-331.2 455.21,-324.65"/>
</g>
<!-- [root] root&#45;&gt;[root] var.elb_names -->
<g id="edge10" class="edge">
<title>[root] root&#45;&gt;[root] var.elb_names</title>
<path fill="none" stroke="black" d="M570.3,-360.05C564.03,-351.92 556.37,-342 549.39,-332.94"/>
<polygon fill="black" stroke="black" points="551.58,-331.06 542.7,-325.28 546.04,-335.33 551.58,-331.06"/>
</g>
<!-- [root] root&#45;&gt;[root] var.list -->
<g id="edge11" class="edge">
<title>[root] root&#45;&gt;[root] var.list</title>
<path fill="none" stroke="black" d="M596.69,-360.05C603.15,-351.84 611.04,-341.79 618.21,-332.66"/>
<polygon fill="black" stroke="black" points="621.38,-335.3 624.8,-325.28 615.87,-330.98 621.38,-335.3"/>
</g>
<!-- [root] root&#45;&gt;[root] var.tm -->
<g id="edge12" class="edge">
<title>[root] root&#45;&gt;[root] var.tm</title>
<path fill="none" stroke="black" d="M612.88,-361.81C632.04,-351.95 657.27,-338.97 678.36,-328.11"/>
<polygon fill="black" stroke="black" points="679.74,-330.82 687.03,-323.13 676.54,-324.6 679.74,-330.82"/>
</g>
<!-- [root] root&#45;&gt;[root] var.types -->
<g id="edge13" class="edge">
<title>[root] root&#45;&gt;[root] var.types</title>
<path fill="none" stroke="black" d="M626.18,-364.57C659.67,-354.74 707.64,-340.44 758.32,-324.29"/>
<polygon fill="black" stroke="black" points="759.03,-327.41 767.48,-321.03 756.89,-320.75 759.03,-327.41"/>
</g>
<!-- [root] root&#45;&gt;[root] var.vpn_ip -->
<g id="edge14" class="edge">
<title>[root] root&#45;&gt;[root] var.vpn_ip</title>
<path fill="none" stroke="black" d="M637.75,-368.55C691.43,-359.77 775.97,-344.74 857.26,-324.4"/>
<polygon fill="black" stroke="black" points="857.83,-327.61 866.67,-321.76 856.11,-320.82 857.83,-327.61"/>
</g>
<!-- [root] root&#45;&gt;[root] provider[&quot;registry.terraform.io/hashicorp/aws&quot;] (close) -->
<g id="edge5" class="edge">
<title>[root] root&#45;&gt;[root] provider[&quot;registry.terraform.io/hashicorp/aws&quot;] (close)</title>
<path fill="none" stroke="black" d="M642.05,-371.18C747.18,-360.76 971.08,-338.56 1125.88,-323.21"/>
<polygon fill="black" stroke="black" points="1125.83,-326.63 1135.44,-322.16 1125.14,-319.67 1125.83,-326.63"/>
</g>
</g>
</svg>
